<svg xmlns="http://www.w3.org/2000/svg" viewBox="0 0 576 512">
<path fill="#1E3A5F" d="M304 64h-32v24h32V64zM0 192c0 35.3 28.7 64 64 64h160c35.3 0 64-28.7 64-64v-32H0v32zm192-32v32c0 17.7-14.3 32-32 32H64c-17.7 0-32-14.3-32-32v-32h160zM416 32h-80v24h80V32zm160 160c0 35.3-28.7 64-64 64H352c-35.3 0-64-28.7-64-64v-32h288v32zm-192-32v32c0 17.7 14.3 32 32 32h128c17.7 0 32-14.3 32-32v-32H384zM256 0h64v24h-64V0zM64 352c-35.3 0-64 28.7-64 64v32h128v-32c0-35.3-28.7-64-64-64zm448 0c-35.3 0-64 28.7-64 64v32h128v-32c0-35.3-28.7-64-64-64zM288 512c17.7 0 32-14.3 32-32V320h128c17.7 0 32-14.3 32-32s-14.3-32-32-32H320V64c0-17.7-14.3-32-32-32s-32 14.3-32 32v192H96c-17.7 0-32 14.3-32 32s14.3 32 32 32h128v160c0 17.7 14.3 32 32 32z"/>
</svg>
